# xmcd
#
# Track frame offsets: 
#        150
#        18194
#        46490
#        76176
#        126442
#
# Disc length: 4440 seconds
#
# Revision: 2
# Processed by: cddbd v1.5.2PL0 Copyright (c) Steve Scherf et al.
# Submitted via: ExactAudioCopy v0.99pb5
#
DISCID=35115605
DTITLE=Röyksopp - Only This Moment (Single)
DYEAR=2005
DGENRE=Electronic
TTITLE0=Only This Moment (Album Version)
TTITLE1=Only This Moment (Röyksopp Hissige)
TTITLE2=Only This Moment (Alan Braxe and Fred Falke Remix)
TTITLE3=Only This Moment (Chab Remix)
TTITLE4=Daten-CD
EXTD=
EXTT0=
EXTT1=
EXTT2=
EXTT3=
EXTT4=
PLAYORDER=
